<?xml version="1.0" encoding="UTF-8" standalone="no"?>
<!-- Created with Inkscape (http://www.inkscape.org/) -->

<svg
   version="1.0"
   width="350.69324"
   height="117.14667"
   id="svg6843"
   sodipodi:docname="Relm_logo_with_text.svg"
   inkscape:version="1.1 (c68e22c387, 2021-05-23)"
   xmlns:inkscape="http://www.inkscape.org/namespaces/inkscape"
   xmlns:sodipodi="http://sodipodi.sourceforge.net/DTD/sodipodi-0.dtd"
   xmlns="http://www.w3.org/2000/svg"
   xmlns:svg="http://www.w3.org/2000/svg">
  <sodipodi:namedview
     id="namedview10"
     pagecolor="#000000"
     bordercolor="#666666"
     borderopacity="1.0"
     inkscape:pageshadow="2"
     inkscape:pageopacity="0"
     inkscape:pagecheckerboard="false"
     showgrid="false"
     inkscape:snap-object-midpoints="false"
     inkscape:snap-midpoints="false"
     inkscape:snap-bbox="false"
     inkscape:bbox-paths="true"
     inkscape:object-paths="true"
     inkscape:snap-intersection-paths="true"
     inkscape:zoom="2.8784656"
     inkscape:cx="212.43957"
     inkscape:cy="83.204051"
     inkscape:window-width="2560"
     inkscape:window-height="1016"
     inkscape:window-x="0"
     inkscape:window-y="0"
     inkscape:window-maximized="1"
     inkscape:current-layer="text2962"
     fit-margin-top="0"
     fit-margin-left="0"
     fit-margin-right="0"
     fit-margin-bottom="0"
     width="304.32053px" />
  <defs
     id="defs6845">
    <rect
       x="91.547935"
       y="6.9400039"
       width="260.87509"
       height="97.942398"
       id="rect2964" />
  </defs>
  <rect
     style="fill:#ffffff;fill-opacity:1;fill-rule:evenodd;stroke-width:2.18324;stroke-linejoin:round"
     id="rect41222"
     width="350.69324"
     height="117.14667"
     x="0"
     y="0"
     ry="19.507429" />
  <g
     id="g41312"
     transform="translate(10.885546,10.396545)">
    <path
       style="fill:#729fcf;fill-opacity:1;stroke:#ffffff;stroke-width:2.1;stroke-linecap:square;stroke-linejoin:round;stroke-miterlimit:4;stroke-dasharray:none;stroke-opacity:1"
       d="M 50.457927,33.423344 50.600382,1.0499688 84.25273,23.215377 Z"
       id="path11026"
       sodipodi:nodetypes="cccc" />
    <path
       style="fill:#e40000;fill-opacity:1;stroke:#ffffff;stroke-width:2.1;stroke-linecap:square;stroke-linejoin:round;stroke-miterlimit:4;stroke-dasharray:none;stroke-opacity:1"
       d="M 1.0499729,14.001336 33.98282,38.702084 v 55.577152 z"
       id="path972"
       sodipodi:nodetypes="cccc" />
    <path
       style="fill:#e40000;fill-opacity:1;stroke:#ffffff;stroke-width:2.1;stroke-linecap:square;stroke-linejoin:round;stroke-miterlimit:4;stroke-dasharray:none;stroke-opacity:1"
       d="M 1.0499729,14.001336 3.3824689,64.493855 20.071066,59.464019 Z"
       id="path4581"
       sodipodi:nodetypes="cccc" />
    <path
       style="fill:#e40000;fill-opacity:1;stroke:#ffffff;stroke-width:2.1;stroke-linecap:square;stroke-linejoin:round;stroke-miterlimit:4;stroke-dasharray:none;stroke-opacity:1"
       d="M 33.98282,94.279236 3.3824689,64.493855 20.071066,59.464019 Z"
       id="path5062"
       sodipodi:nodetypes="cccc" />
    <path
       style="fill:#7fe719;fill-opacity:1;stroke:#ffffff;stroke-width:2.1;stroke-linecap:butt;stroke-linejoin:round;stroke-miterlimit:4;stroke-dasharray:none;stroke-opacity:1;paint-order:normal"
       d="M 33.98282,38.702084 84.25273,23.215377 83.382033,73.695076 Z"
       id="path5182"
       sodipodi:nodetypes="cccc" />
    <path
       style="fill:#7fe719;fill-opacity:1;stroke:#ffffff;stroke-width:2.1;stroke-linecap:square;stroke-linejoin:round;stroke-miterlimit:4;stroke-dasharray:none;stroke-opacity:1"
       d="M 83.382033,73.695076 33.98282,94.279236 V 38.702084 Z"
       id="path8723"
       sodipodi:nodetypes="cccc" />
    <path
       style="fill:#729fcf;fill-opacity:1;stroke:#ffffff;stroke-width:2.1;stroke-linecap:square;stroke-linejoin:round;stroke-miterlimit:4;stroke-dasharray:none;stroke-opacity:1"
       d="M 33.98282,38.702084 50.457927,33.423344 50.600382,1.0499688 1.0499729,14.001336 Z"
       id="path9299"
       sodipodi:nodetypes="ccccc" />
    <path
       style="fill:#729fcf;fill-opacity:1;stroke:#ffffff;stroke-width:2.1;stroke-linecap:square;stroke-linejoin:round;stroke-miterlimit:4;stroke-dasharray:none;stroke-opacity:1"
       d="M 33.98282,38.702084 50.457927,33.423344 17.473592,9.7085698 1.0499729,14.001336 Z"
       id="path10758"
       sodipodi:nodetypes="ccccc" />
  </g>
  <g
     aria-label="Relm4"
     transform="translate(15.883848,6.9309306)"
     id="text2962"
     style="font-size:80px;line-height:1.25;white-space:pre;shape-inside:url(#rect2964)">
    <path
       d="m 115.30883,57.112786 h -6.72 v 22.16 H 98.028828 v -55.28 h 16.480002 q 21.92,0 21.92,16.24 0,5.6 -2.72,9.2 -2.72,3.52 -8.48,5.76 l 14.48,24.08 h -12.16 z m -6.72,-7.6 h 6.56 q 5.04,0 7.6,-2.16 2.64,-2.24 2.64,-7.12 0,-4.48 -2.72,-6.48 -2.64,-2.08 -8.4,-2.08 h -5.68 z"
       style="font-weight:500;font-family:'Fira Sans';-inkscape-font-specification:'Fira Sans Medium'"
       id="path834" />
    <path
       d="m 180.50866,57.112786 q 0,0.8 -0.24,4.16 h -26.56 q 0.56,6.16 3.2,8.8 2.72,2.64 7.2,2.64 2.8,0 5.28,-0.88 2.48,-0.96 5.28,-2.88 l 4.24,5.84 q -7.04,5.68 -15.68,5.68 -9.68,0 -14.96,-5.92 -5.2,-5.92 -5.2,-16.16 0,-6.48 2.24,-11.6 2.24,-5.2 6.48,-8.08 4.24,-2.96 10.08,-2.96 8.88,0 13.76,5.68 4.88,5.6 4.88,15.68 z m -10.16,-2.96 q 0,-11.12 -8.24,-11.12 -3.76,0 -5.92,2.8 -2.08,2.72 -2.48,8.8 h 16.64 z"
       style="font-weight:500;font-family:'Fira Sans';-inkscape-font-specification:'Fira Sans Medium'"
       id="path836" />
    <path
       d="m 199.94851,80.472786 q -4.88,0 -7.68,-2.8 -2.72,-2.88 -2.72,-8.08 v -49.6 l 10.24,-1.12 v 50.4 q 0,2.96 2.4,2.96 1.2,0 2.4,-0.4 l 2.16,7.2 q -3.2,1.44 -6.8,1.44 z"
       style="font-weight:500;font-family:'Fira Sans';-inkscape-font-specification:'Fira Sans Medium'"
       id="path838" />
    <path
       d="m 258.42837,35.752786 q 5.12,0 8.16,3.52 3.04,3.44 3.04,9.36 v 30.64 h -10.24 v -29.04 q 0,-6.8 -4.64,-6.8 -2.48,0 -4.32,1.6 -1.76,1.52 -3.68,4.8 v 29.44 h -10.24 v -29.04 q 0,-6.8 -4.64,-6.8 -2.56,0 -4.4,1.6 -1.76,1.52 -3.68,4.8 v 29.44 h -10.24 v -42.32 h 8.88 l 0.8,5.52 q 4.8,-6.72 12.24,-6.72 3.68,0 6.32,1.84 2.72,1.84 4,5.28 2.48,-3.52 5.52,-5.28 3.04,-1.84 7.12,-1.84 z"
       style="font-weight:500;font-family:'Fira Sans';-inkscape-font-specification:'Fira Sans Medium'"
       id="path840" />
    <path
       d="m 317.38824,66.952786 h -6.48 v 12.32 h -10 v -12.32 h -22.88 v -7.04 l 15.68,-35.52 8.72,3.28 -13.76,31.44 h 12.32 l 1.04,-13.52 h 8.88 v 13.52 h 6.48 z"
       style="font-weight:500;font-family:'Fira Sans';-inkscape-font-specification:'Fira Sans Medium'"
       id="path842" />
  </g>
</svg>
